<mxfile host="app.diagrams.net" modified="2023-11-29T12:14:36.165Z" agent="Mozilla/5.0 (Macintosh; Intel Mac OS X 10.15; rv:120.0) Gecko/20100101 Firefox/120.0" etag="L9Y-42vS6atU-XkX44Gr" version="22.1.4" type="device">
  <diagram name="Page-1" id="h8gg8JFCPHhdIbwTsktL">
    <mxGraphModel dx="1026" dy="626" grid="1" gridSize="10" guides="1" tooltips="1" connect="1" arrows="1" fold="1" page="1" pageScale="1" pageWidth="827" pageHeight="1169" math="0" shadow="0">
      <root>
        <mxCell id="0" />
        <mxCell id="1" parent="0" />
        <mxCell id="5w3CNKWvQkJ1DniZj6bS-23" value="" style="rounded=0;whiteSpace=wrap;html=1;" vertex="1" parent="1">
          <mxGeometry x="190" y="90" width="800" height="500" as="geometry" />
        </mxCell>
        <mxCell id="5w3CNKWvQkJ1DniZj6bS-20" value="" style="rounded=1;whiteSpace=wrap;html=1;fillColor=#d5e8d4;strokeColor=#82b366;" vertex="1" parent="1">
          <mxGeometry x="764" y="182" width="160" height="289" as="geometry" />
        </mxCell>
        <mxCell id="5w3CNKWvQkJ1DniZj6bS-17" value="" style="rounded=1;whiteSpace=wrap;html=1;fillColor=#dae8fc;strokeColor=#6c8ebf;" vertex="1" parent="1">
          <mxGeometry x="534" y="110" width="160" height="430" as="geometry" />
        </mxCell>
        <mxCell id="5w3CNKWvQkJ1DniZj6bS-16" value="" style="rounded=1;whiteSpace=wrap;html=1;fillColor=#f5f5f5;strokeColor=#666666;fontColor=#333333;" vertex="1" parent="1">
          <mxGeometry x="234" y="161" width="160" height="310" as="geometry" />
        </mxCell>
        <mxCell id="5w3CNKWvQkJ1DniZj6bS-3" value="Nginx container" style="shape=image;html=1;verticalAlign=top;verticalLabelPosition=bottom;labelBackgroundColor=#ffffff;imageAspect=0;aspect=fixed;image=https://cdn1.iconfinder.com/data/icons/unicons-line-vol-3/24/docker-128.png" vertex="1" parent="1">
          <mxGeometry x="250" y="252" width="128" height="128" as="geometry" />
        </mxCell>
        <mxCell id="5w3CNKWvQkJ1DniZj6bS-4" value="myapp container 1" style="shape=image;html=1;verticalAlign=top;verticalLabelPosition=bottom;labelBackgroundColor=#ffffff;imageAspect=0;aspect=fixed;image=https://cdn1.iconfinder.com/data/icons/unicons-line-vol-3/24/docker-128.png" vertex="1" parent="1">
          <mxGeometry x="550" y="100" width="128" height="128" as="geometry" />
        </mxCell>
        <mxCell id="5w3CNKWvQkJ1DniZj6bS-5" value="myapp container 2" style="shape=image;html=1;verticalAlign=top;verticalLabelPosition=bottom;labelBackgroundColor=#ffffff;imageAspect=0;aspect=fixed;image=https://cdn1.iconfinder.com/data/icons/unicons-line-vol-3/24/docker-128.png" vertex="1" parent="1">
          <mxGeometry x="550" y="252" width="128" height="128" as="geometry" />
        </mxCell>
        <mxCell id="5w3CNKWvQkJ1DniZj6bS-6" value="myapp container 3" style="shape=image;html=1;verticalAlign=top;verticalLabelPosition=bottom;labelBackgroundColor=#ffffff;imageAspect=0;aspect=fixed;image=https://cdn1.iconfinder.com/data/icons/unicons-line-vol-3/24/docker-128.png" vertex="1" parent="1">
          <mxGeometry x="550" y="380" width="128" height="128" as="geometry" />
        </mxCell>
        <mxCell id="5w3CNKWvQkJ1DniZj6bS-8" style="edgeStyle=orthogonalEdgeStyle;rounded=0;orthogonalLoop=1;jettySize=auto;html=1;" edge="1" parent="1" source="5w3CNKWvQkJ1DniZj6bS-7" target="5w3CNKWvQkJ1DniZj6bS-3">
          <mxGeometry relative="1" as="geometry" />
        </mxCell>
        <mxCell id="5w3CNKWvQkJ1DniZj6bS-9" value="port: 8081" style="edgeLabel;html=1;align=center;verticalAlign=middle;resizable=0;points=[];" vertex="1" connectable="0" parent="5w3CNKWvQkJ1DniZj6bS-8">
          <mxGeometry x="-0.1059" y="-1" relative="1" as="geometry">
            <mxPoint as="offset" />
          </mxGeometry>
        </mxCell>
        <mxCell id="5w3CNKWvQkJ1DniZj6bS-7" value="Actor" style="shape=umlActor;verticalLabelPosition=bottom;verticalAlign=top;html=1;outlineConnect=0;" vertex="1" parent="1">
          <mxGeometry x="50" y="286" width="30" height="60" as="geometry" />
        </mxCell>
        <mxCell id="5w3CNKWvQkJ1DniZj6bS-10" value="" style="endArrow=classic;html=1;rounded=0;entryX=0;entryY=0.5;entryDx=0;entryDy=0;" edge="1" parent="1" target="5w3CNKWvQkJ1DniZj6bS-4">
          <mxGeometry width="50" height="50" relative="1" as="geometry">
            <mxPoint x="390" y="320" as="sourcePoint" />
            <mxPoint x="440" y="300" as="targetPoint" />
          </mxGeometry>
        </mxCell>
        <mxCell id="5w3CNKWvQkJ1DniZj6bS-13" value="port:80" style="edgeLabel;html=1;align=center;verticalAlign=middle;resizable=0;points=[];" vertex="1" connectable="0" parent="5w3CNKWvQkJ1DniZj6bS-10">
          <mxGeometry x="0.0256" relative="1" as="geometry">
            <mxPoint as="offset" />
          </mxGeometry>
        </mxCell>
        <mxCell id="5w3CNKWvQkJ1DniZj6bS-11" value="" style="endArrow=classic;html=1;rounded=0;" edge="1" parent="1" target="5w3CNKWvQkJ1DniZj6bS-5">
          <mxGeometry width="50" height="50" relative="1" as="geometry">
            <mxPoint x="390" y="320" as="sourcePoint" />
            <mxPoint x="560" y="174" as="targetPoint" />
          </mxGeometry>
        </mxCell>
        <mxCell id="5w3CNKWvQkJ1DniZj6bS-14" value="port:80" style="edgeLabel;html=1;align=center;verticalAlign=middle;resizable=0;points=[];" vertex="1" connectable="0" parent="5w3CNKWvQkJ1DniZj6bS-11">
          <mxGeometry x="0.1615" y="-5" relative="1" as="geometry">
            <mxPoint as="offset" />
          </mxGeometry>
        </mxCell>
        <mxCell id="5w3CNKWvQkJ1DniZj6bS-12" value="" style="endArrow=classic;html=1;rounded=0;entryX=0;entryY=0.5;entryDx=0;entryDy=0;" edge="1" parent="1" target="5w3CNKWvQkJ1DniZj6bS-6">
          <mxGeometry width="50" height="50" relative="1" as="geometry">
            <mxPoint x="390" y="320" as="sourcePoint" />
            <mxPoint x="560" y="327" as="targetPoint" />
          </mxGeometry>
        </mxCell>
        <mxCell id="5w3CNKWvQkJ1DniZj6bS-15" value="port:80" style="edgeLabel;html=1;align=center;verticalAlign=middle;resizable=0;points=[];" vertex="1" connectable="0" parent="5w3CNKWvQkJ1DniZj6bS-12">
          <mxGeometry x="0.0875" y="-3" relative="1" as="geometry">
            <mxPoint as="offset" />
          </mxGeometry>
        </mxCell>
        <mxCell id="5w3CNKWvQkJ1DniZj6bS-19" value="secret-keys-volume" style="shape=image;html=1;verticalAlign=top;verticalLabelPosition=bottom;labelBackgroundColor=#ffffff;imageAspect=0;aspect=fixed;image=https://cdn1.iconfinder.com/data/icons/unicons-line-vol-3/24/docker-128.png" vertex="1" parent="1">
          <mxGeometry x="780" y="252" width="128" height="128" as="geometry" />
        </mxCell>
        <mxCell id="5w3CNKWvQkJ1DniZj6bS-24" value="VM " style="image;sketch=0;aspect=fixed;html=1;points=[];align=center;fontSize=12;image=img/lib/mscae/Virtual_Machine.svg;" vertex="1" parent="1">
          <mxGeometry x="170" y="64" width="50" height="46" as="geometry" />
        </mxCell>
      </root>
    </mxGraphModel>
  </diagram>
</mxfile>
